<svg width="88" height="56" viewBox="0 0 88 56" fill="none" xmlns="http://www.w3.org/2000/svg">
<g opacity="0.5">
<path d="M5.27962 6.12324H1.87161L1.10621 8.24627H0L3.10632 0.111738H4.04492L7.15682 8.24627H6.0562L5.27962 6.12324ZM2.19565 5.24051H4.96117L3.57562 1.43583L2.19565 5.24051Z" fill="black"/>
<path d="M19.7177 5.66512C19.6172 6.5255 19.2987 7.19034 18.7624 7.65964C18.2298 8.12522 17.5202 8.358 16.6338 8.358C15.6728 8.358 14.9018 8.01348 14.3208 7.32443C13.7435 6.63538 13.4548 5.71354 13.4548 4.55891V3.77675C13.4548 3.02065 13.5889 2.35581 13.8571 1.78222C14.129 1.20863 14.5126 0.76913 15.008 0.463713C15.5034 0.154571 16.0769 0 16.7287 0C17.5929 0 18.2856 0.242099 18.8071 0.726297C19.3285 1.20677 19.6321 1.87347 19.7177 2.72641H18.6395C18.5463 2.07833 18.3434 1.60903 18.0305 1.31851C17.7213 1.02799 17.2874 0.88273 16.7287 0.88273C16.0434 0.88273 15.5052 1.136 15.1141 1.64255C14.7268 2.14909 14.5331 2.8698 14.5331 3.80468V4.59243C14.5331 5.47516 14.7175 6.17725 15.0862 6.69869C15.4549 7.22014 15.9708 7.48086 16.6338 7.48086C17.2297 7.48086 17.686 7.34677 18.0026 7.0786C18.3229 6.80671 18.5352 6.33555 18.6395 5.66512H19.7177Z" fill="black"/>
<path d="M32.1893 0.994468H29.5746V8.24627H28.5075V0.994468H25.8984V0.111738H32.1893V0.994468Z" fill="black"/>
<path d="M40.0963 8.24627H39.0236V0.111738H40.0963V8.24627Z" fill="black"/>
<path d="M50.3051 6.82161L52.6293 0.111738H53.8025L50.7856 8.24627H49.8358L46.8245 0.111738H47.9921L50.3051 6.82161Z" fill="black"/>
<path d="M61.5978 8.24627H60.5251V0.111738H61.5978V8.24627Z" fill="black"/>
<path d="M74.5666 0.994468H71.9519V8.24627H70.8848V0.994468H68.2757V0.111738H74.5666V0.994468Z" fill="black"/>
<path d="M83.8927 4.19576L86.0157 0.111738H87.2336L84.429 5.21258V8.24627H83.3563V5.21258L80.5517 0.111738H81.7808L83.8927 4.19576Z" fill="black"/>
<path d="M49.8482 44.3408H37.3651L34.5615 52.1171H30.5096L41.8877 22.3214L45.3256 22.3214L56.7241 52.1171H52.6927L49.8482 44.3408ZM38.552 41.1074H48.6817L43.6067 27.1714L38.552 41.1074Z" fill="black"/>
<path d="M43.5821 50.1017L53.2045 22.3215H58.062L45.5713 56.0001H41.6391L29.1715 22.3215H34.0059L43.5821 50.1017Z" fill="black"/>
</g>
</svg>
