<svg width="110" height="112" viewBox="0 0 110 112" fill="none" xmlns="http://www.w3.org/2000/svg">
<path d="M67.3699 46.1865L41.1861 46.1865L35.3055 62.4977H26.8065L50.6724 0L57.8837 0L81.7925 62.4977H73.3364L67.3699 46.1865ZM43.6757 39.4045L64.9233 39.4045L54.278 10.173L43.6757 39.4045Z" fill="url(#paint0_linear_3090_1004)"/>
<path d="M54.2267 58.2701L74.4102 0L84.599 0L58.3993 70.6422H50.1512L24 0L34.1403 0L54.2267 58.2701Z" fill="url(#paint1_linear_3090_1004)"/>
<path d="M6.62699 108.417H2.34925L1.38851 111.082H0L3.89905 100.871H5.07718L8.98325 111.082H7.60175L6.62699 108.417ZM2.75598 107.309H6.22726L4.48812 102.533L2.75598 107.309Z" fill="black"/>
<path d="M24.7497 107.842C24.6235 108.922 24.2238 109.756 23.5506 110.345C22.882 110.93 21.9914 111.222 20.8787 111.222C19.6725 111.222 18.7048 110.789 17.9755 109.925C17.2508 109.06 16.8885 107.903 16.8885 106.453V105.472C16.8885 104.522 17.0568 103.688 17.3934 102.968C17.7347 102.248 18.2162 101.696 18.838 101.313C19.4598 100.925 20.1798 100.731 20.9979 100.731C22.0826 100.731 22.9521 101.035 23.6067 101.643C24.2612 102.246 24.6422 103.083 24.7497 104.153H23.3963C23.2794 103.34 23.0246 102.751 22.6319 102.386C22.2439 102.021 21.6992 101.839 20.9979 101.839C20.1377 101.839 19.4622 102.157 18.9713 102.793C18.4851 103.429 18.242 104.333 18.242 105.507V106.495C18.242 107.603 18.4734 108.485 18.9362 109.139C19.399 109.794 20.0465 110.121 20.8787 110.121C21.6267 110.121 22.1994 109.953 22.5968 109.616C22.9989 109.275 23.2654 108.683 23.3963 107.842H24.7497Z" fill="black"/>
<path d="M40.404 101.979H37.1221V111.082H35.7826V101.979H32.5077V100.871H40.404V101.979Z" fill="black"/>
<path d="M50.3289 111.082H48.9825V100.871H50.3289V111.082Z" fill="black"/>
<path d="M63.143 109.293L66.0603 100.871H67.533L63.7461 111.082H62.554L58.7741 100.871H60.2398L63.143 109.293Z" fill="black"/>
<path d="M77.3176 111.082H75.9712V100.871H77.3176V111.082Z" fill="black"/>
<path d="M93.596 101.979H90.3141V111.082H88.9747V101.979H85.6998V100.871H93.596V101.979Z" fill="black"/>
<path d="M105.302 105.997L107.967 100.871H109.496L105.975 107.274V111.082H104.629V107.274L101.109 100.871H102.651L105.302 105.997Z" fill="black"/>
<defs>
<linearGradient id="paint0_linear_3090_1004" x1="54.2995" y1="0" x2="54.2995" y2="62.4977" gradientUnits="userSpaceOnUse">
<stop stop-color="#BFE4FF"/>
<stop offset="1" stop-color="white"/>
</linearGradient>
<linearGradient id="paint1_linear_3090_1004" x1="54.2995" y1="0" x2="54.2995" y2="70.6422" gradientUnits="userSpaceOnUse">
<stop/>
<stop offset="1" stop-color="#4E09FF"/>
</linearGradient>
</defs>
</svg>
